name Walk5.mot
datacolumns 19
datarows 17
range 1.73700000 1.75300000
endheader

                time	   L_ground_force_vx	   L_ground_force_vy	   L_ground_force_vz	   L_ground_force_px	   L_ground_force_py	   L_ground_force_pz	   R_ground_force_vx	   R_ground_force_vy	   R_ground_force_vz	   R_ground_force_px	   R_ground_force_py	   R_ground_force_pz	   L_ground_torque_x	   L_ground_torque_y	   L_ground_torque_z	   R_ground_torque_x	   R_ground_torque_y	   R_ground_torque_z	
          1.73700000	         -6.82317630	        656.45268098	         44.97750305	         -0.22845464	          0.00000000	         -0.07828246	          0.00000000	          0.00000000	          0.00000000	          0.00000000	          0.00000000	          0.00000000	          0.00000000	          0.67710301	          0.00000000	          0.00000000	          0.00000000	          0.00000000	
          1.73800000	         -6.72579942	        658.19725395	         45.05589242	         -0.22794256	          0.00000000	         -0.07833528	          0.00000000	          0.00000000	          0.00000000	          0.00000000	          0.00000000	          0.00000000	          0.00000000	          0.68960839	          0.00000000	          0.00000000	          0.00000000	          0.00000000	
          1.73900000	         -6.60741021	        659.94086694	         45.18572331	         -0.22745683	          0.00000000	         -0.07842157	          0.00000000	          0.00000000	          0.00000000	          0.00000000	          0.00000000	          0.00000000	          0.00000000	          0.69118364	          0.00000000	          0.00000000	          0.00000000	          0.00000000	
          1.74000000	         -6.45555974	        661.63285657	         45.33147206	         -0.22695920	          0.00000000	         -0.07850118	          0.00000000	          0.00000000	          0.00000000	          0.00000000	          0.00000000	          0.00000000	          0.00000000	          0.67092175	          0.00000000	          0.00000000	          0.00000000	          0.00000000	
          1.74100000	         -6.28273500	        663.28229773	         45.44972154	         -0.22642771	          0.00000000	         -0.07854682	          0.00000000	          0.00000000	          0.00000000	          0.00000000	          0.00000000	          0.00000000	          0.00000000	          0.63490417	          0.00000000	          0.00000000	          0.00000000	          0.00000000	
          1.74200000	         -6.12030399	        664.95596623	         45.51213673	         -0.22585975	          0.00000000	         -0.07856170	          0.00000000	          0.00000000	          0.00000000	          0.00000000	          0.00000000	          0.00000000	          0.00000000	          0.60227380	          0.00000000	          0.00000000	          0.00000000	          0.00000000	
          1.74300000	         -5.99318739	        666.74734423	         45.51850454	         -0.22527391	          0.00000000	         -0.07855370	          0.00000000	          0.00000000	          0.00000000	          0.00000000	          0.00000000	          0.00000000	          0.00000000	          0.59046252	          0.00000000	          0.00000000	          0.00000000	          0.00000000	
          1.74400000	         -5.90595960	        668.69281190	         45.48843576	         -0.22469932	          0.00000000	         -0.07850932	          0.00000000	          0.00000000	          0.00000000	          0.00000000	          0.00000000	          0.00000000	          0.00000000	          0.60325269	          0.00000000	          0.00000000	          0.00000000	          0.00000000	
          1.74500000	         -5.84491667	        670.72789110	         45.45357892	         -0.22415104	          0.00000000	         -0.07841761	          0.00000000	          0.00000000	          0.00000000	          0.00000000	          0.00000000	          0.00000000	          0.00000000	          0.63123939	          0.00000000	          0.00000000	          0.00000000	          0.00000000	
          1.74600000	         -5.79058844	        672.74111427	         45.45116216	         -0.22362378	          0.00000000	         -0.07829812	          0.00000000	          0.00000000	          0.00000000	          0.00000000	          0.00000000	          0.00000000	          0.00000000	          0.66233852	          0.00000000	          0.00000000	          0.00000000	          0.00000000	
          1.74700000	         -5.72750112	        674.66503324	         45.50532895	         -0.22310948	          0.00000000	         -0.07818362	          0.00000000	          0.00000000	          0.00000000	          0.00000000	          0.00000000	          0.00000000	          0.00000000	          0.69117224	          0.00000000	          0.00000000	          0.00000000	          0.00000000	
          1.74800000	         -5.64197608	        676.53669646	         45.61108277	         -0.22261306	          0.00000000	         -0.07809097	          0.00000000	          0.00000000	          0.00000000	          0.00000000	          0.00000000	          0.00000000	          0.00000000	          0.71837005	          0.00000000	          0.00000000	          0.00000000	          0.00000000	
          1.74900000	         -5.52312860	        678.46008475	         45.73190240	         -0.22214852	          0.00000000	         -0.07802684	          0.00000000	          0.00000000	          0.00000000	          0.00000000	          0.00000000	          0.00000000	          0.00000000	          0.74325007	          0.00000000	          0.00000000	          0.00000000	          0.00000000	
          1.75000000	         -5.36939084	        680.49255789	         45.81436204	         -0.22171956	          0.00000000	         -0.07800514	          0.00000000	          0.00000000	          0.00000000	          0.00000000	          0.00000000	          0.00000000	          0.00000000	          0.76120974	          0.00000000	          0.00000000	          0.00000000	          0.00000000	
          1.75100000	         -5.18966303	        682.59949547	         45.82804748	         -0.22130903	          0.00000000	         -0.07803014	          0.00000000	          0.00000000	          0.00000000	          0.00000000	          0.00000000	          0.00000000	          0.00000000	          0.76858375	          0.00000000	          0.00000000	          0.00000000	          0.00000000	
          1.75200000	         -5.00108119	        684.72417419	         45.79361322	         -0.22088997	          0.00000000	         -0.07807138	          0.00000000	          0.00000000	          0.00000000	          0.00000000	          0.00000000	          0.00000000	          0.00000000	          0.76810912	          0.00000000	          0.00000000	          0.00000000	          0.00000000	
          1.75300000	         -4.82157533	        686.85168879	         45.75791560	         -0.22044655	          0.00000000	         -0.07808438	          0.00000000	          0.00000000	          0.00000000	          0.00000000	          0.00000000	          0.00000000	          0.00000000	          0.76848715	          0.00000000	          0.00000000	          0.00000000	          0.00000000	
